<svg id="Layer_1" data-name="Layer 1" xmlns="http://www.w3.org/2000/svg" viewBox="0 0 685.35 700.84"><defs><style>.cls-1{fill:#fff;}</style></defs><title>Logo</title><polygon class="cls-1" points="564.5 413.29 574.09 415.49 585.82 364.49 534.81 352.77 523.09 403.77 533.07 406.06 501.13 549.74 404.58 549.74 341.91 310.37 274.24 549.74 184.36 549.74 53.26 0 0 0 0 689.97 241.22 689.97 241.22 700 293.54 700 293.54 647.65 241.22 647.65 241.22 657.71 32.26 657.71 32.26 51.06 158.87 582 298.65 582 340.72 433.19 379.65 582 526.99 582 564.5 413.29"/><polygon class="cls-1" points="685.35 2.34 145.94 2.34 232.05 377.61 291.93 135.59 390.79 135.59 449.85 368.09 510.24 136.58 595.2 136.58 570.87 245.93 559.95 243.43 548.23 294.43 599.23 306.15 610.95 255.15 599.72 252.57 632.09 107.01 487.39 107.01 450.23 249.47 413.77 106.01 268.78 106.01 233.13 250.09 183.07 31.91 655.77 31.91 655.77 659.05 446.04 659.05 446.04 646.82 392.05 646.82 392.05 700.84 446.04 700.84 446.04 688.63 685.35 688.63 685.35 2.34"/></svg>